<svg xmlns="http://www.w3.org/2000/svg" viewBox="0 0 512 512">
  <defs>
    <linearGradient id="bg" x1="70" y1="40" x2="440" y2="470" gradientUnits="userSpaceOnUse">
      <stop stop-color="#7bf2aa"/>
      <stop offset="1" stop-color="#20bf6b"/>
    </linearGradient>
  </defs>
  <rect width="512" height="512" rx="118" fill="#071a12"/>
  <path d="M124 389c18-91 46-170 100-243l-9-61 61 37c47 0 91 24 118 67l-45-11 28 47-54-12c-19 28-50 43-86 43-25 0-49-8-68-24-8 32-13 70-14 113l60 44H124Z" fill="url(#bg)"/>
  <path d="M283 153c18 0 34 8 45 21-10-5-21-7-32-7-31 0-54 18-70 48" fill="none" stroke="#071a12" stroke-width="18" stroke-linecap="round"/>
  <circle cx="315" cy="165" r="10" fill="#071a12"/>
  <path d="M199 389h189" fill="none" stroke="#f4ca64" stroke-width="24" stroke-linecap="round"/>
</svg>
